<svg width="24" height="22" viewBox="0 0 24 22" fill="none" xmlns="http://www.w3.org/2000/svg">
<path fill-rule="evenodd" clip-rule="evenodd" d="M4.78955 1V3.31579H2H0V5.31579V19.8421V21.8421H2H21.1579H23.1579V19.8421V5.31579V3.31579H21.1579H18.3684V1C18.3684 0.447715 17.9207 0 17.3684 0C16.8161 0 16.3684 0.447715 16.3684 1V3.31579H6.78955V1C6.78955 0.447715 6.34184 0 5.78955 0C5.23727 0 4.78955 0.447715 4.78955 1ZM21.1579 5.31579H2V19.8421H21.1579V5.31579ZM18.5264 9.10485H5.78955V8.10485H18.5264V9.10485ZM5.78955 12.5775H15.0527V11.5775H5.78955V12.5775Z" fill="#060470"/>
</svg>
