<svg width="103" height="59" viewBox="0 0 103 59" fill="none" xmlns="http://www.w3.org/2000/svg">
<path d="M35.3877 27.4062C35.3877 28.3229 35.4085 29.0469 35.4502 29.5781C35.5023 30.1094 35.5752 30.5104 35.6689 30.7812C35.7731 31.0521 35.9033 31.224 36.0596 31.2969C36.2158 31.3698 36.3981 31.4062 36.6064 31.4062C36.8877 31.4062 37.1794 31.3177 37.4814 31.1406C37.7835 30.9635 38.0804 30.7344 38.3721 30.4531C38.6637 30.1719 38.9398 29.8594 39.2002 29.5156C39.471 29.1719 39.7158 28.8385 39.9346 28.5156C40.1637 28.1823 40.3564 27.875 40.5127 27.5938C40.6794 27.3021 40.8044 27.0781 40.8877 26.9219L41.3721 25.9531L42.0127 26.4375L41.5283 27.4062C41.445 27.5625 41.3096 27.8177 41.1221 28.1719C40.9346 28.5156 40.7002 28.901 40.4189 29.3281C40.1377 29.7448 39.82 30.1823 39.4658 30.6406C39.1117 31.0885 38.7314 31.5 38.3252 31.875C37.9189 32.25 37.4919 32.5573 37.0439 32.7969C36.596 33.0365 36.1377 33.1562 35.6689 33.1562C35.2419 33.1562 34.8617 33.0833 34.5283 32.9375C34.195 32.7917 33.9137 32.5365 33.6846 32.1719C33.4554 31.7969 33.2783 31.2917 33.1533 30.6562C33.0387 30.0104 32.9814 29.1927 32.9814 28.2031C32.9814 27.8177 32.9867 27.4531 32.9971 27.1094C33.0179 26.7552 33.0439 26.3281 33.0752 25.8281C32.5439 26.8594 31.9294 27.8542 31.2314 28.8125C30.5439 29.7708 29.8044 30.6198 29.0127 31.3594C28.221 32.099 27.3929 32.6875 26.5283 33.125C25.6742 33.5729 24.8096 33.7969 23.9346 33.7969C23.3825 33.7969 22.8564 33.6979 22.3564 33.5C21.8564 33.3021 21.4137 33 21.0283 32.5938C20.6429 32.1771 20.3356 31.6458 20.1064 31C19.8773 30.3542 19.7627 29.5833 19.7627 28.6875C19.7627 27.25 19.9242 25.8385 20.2471 24.4531C20.5596 23.0677 20.9971 21.7292 21.5596 20.4375C22.1221 19.1354 22.7835 17.8958 23.5439 16.7188C24.3044 15.5312 25.1221 14.4323 25.9971 13.4219C26.8721 12.4115 27.7887 11.5 28.7471 10.6875C29.7054 9.86458 30.6637 9.16146 31.6221 8.57812C32.5804 7.99479 33.5127 7.54688 34.4189 7.23438C35.3356 6.92188 36.1898 6.76562 36.9814 6.76562C37.8564 6.76562 38.5544 6.98958 39.0752 7.4375C39.596 7.875 39.8564 8.5 39.8564 9.3125C39.8564 9.85417 39.7471 10.3854 39.5283 10.9062C39.32 11.4167 39.0387 11.9115 38.6846 12.3906C38.3408 12.8594 37.945 13.3073 37.4971 13.7344C37.0596 14.151 36.6169 14.5312 36.1689 14.875C35.721 15.2083 35.2835 15.5052 34.8564 15.7656C34.4398 16.0156 34.0804 16.2135 33.7783 16.3594L33.3096 15.7188C33.57 15.5833 33.8669 15.3958 34.2002 15.1562C34.5439 14.9167 34.8877 14.6354 35.2314 14.3125C35.5752 13.9896 35.9085 13.6354 36.2314 13.25C36.5648 12.8542 36.8617 12.4427 37.1221 12.0156C37.3825 11.5781 37.5908 11.1302 37.7471 10.6719C37.9033 10.2031 37.9814 9.73958 37.9814 9.28125C37.9814 8.83333 37.8617 8.46354 37.6221 8.17188C37.3929 7.86979 37.0179 7.71875 36.4971 7.71875C35.8825 7.71875 35.2158 7.88021 34.4971 8.20312C33.7783 8.51562 33.0387 8.96354 32.2783 9.54688C31.5179 10.1302 30.7523 10.8281 29.9814 11.6406C29.221 12.4427 28.4867 13.3333 27.7783 14.3125C27.07 15.2812 26.4085 16.3229 25.7939 17.4375C25.1898 18.5417 24.6585 19.6927 24.2002 20.8906C23.7523 22.0781 23.3981 23.2917 23.1377 24.5312C22.8773 25.7604 22.7471 26.9844 22.7471 28.2031C22.7471 28.7656 22.7887 29.2865 22.8721 29.7656C22.9554 30.2344 23.0908 30.6406 23.2783 30.9844C23.4658 31.3177 23.7106 31.5781 24.0127 31.7656C24.3148 31.9531 24.6898 32.0469 25.1377 32.0469C25.7002 32.0469 26.2523 31.9219 26.7939 31.6719C27.3356 31.4115 27.8617 31.0625 28.3721 30.625C28.8825 30.1875 29.3721 29.6771 29.8408 29.0938C30.32 28.5104 30.7679 27.8854 31.1846 27.2188C31.6012 26.5521 31.9867 25.8698 32.3408 25.1719C32.7054 24.4635 33.0283 23.7656 33.3096 23.0781C33.3825 22.2969 33.4658 21.5521 33.5596 20.8438C33.6533 20.125 33.7471 19.4844 33.8408 18.9219C33.9346 18.3594 34.0231 17.8958 34.1064 17.5312C34.1898 17.1562 34.2627 16.9271 34.3252 16.8438C34.3669 16.7708 34.4554 16.6875 34.5908 16.5938C34.7262 16.5 34.8773 16.4167 35.0439 16.3438C35.221 16.2604 35.3981 16.1927 35.5752 16.1406C35.7523 16.0781 35.9033 16.0469 36.0283 16.0469C36.3408 16.0469 36.4971 16.2031 36.4971 16.5156C36.4971 16.8073 36.4762 17.1458 36.4346 17.5312C36.3929 17.9167 36.3356 18.3177 36.2627 18.7344C36.1898 19.151 36.1012 19.5729 35.9971 20C35.9033 20.4167 35.7939 20.8021 35.6689 21.1562C35.5856 22.2917 35.5179 23.3854 35.4658 24.4375C35.4137 25.4792 35.3877 26.4688 35.3877 27.4062ZM43.7471 33C43.2679 33 42.8669 32.8646 42.5439 32.5938C42.2314 32.3125 41.9814 31.9375 41.7939 31.4688C41.6064 31 41.471 30.4635 41.3877 29.8594C41.3148 29.2448 41.2783 28.6042 41.2783 27.9375C41.2783 26.8854 41.32 25.9375 41.4033 25.0938C41.4867 24.25 41.5856 23.526 41.7002 22.9219C41.8148 22.3073 41.9294 21.8281 42.0439 21.4844C42.1585 21.1302 42.2419 20.9167 42.2939 20.8438C42.3669 20.75 42.4606 20.6615 42.5752 20.5781C42.7002 20.4948 42.8252 20.4271 42.9502 20.375C43.0752 20.3229 43.2002 20.2812 43.3252 20.25C43.4502 20.2188 43.5544 20.2031 43.6377 20.2031C43.8773 20.2031 44.0439 20.25 44.1377 20.3438C44.2314 20.4375 44.2783 20.6042 44.2783 20.8438C44.2679 20.8438 44.2419 20.9531 44.2002 21.1719C44.1689 21.3802 44.1273 21.6667 44.0752 22.0312C44.0231 22.3958 43.9658 22.8229 43.9033 23.3125C43.8408 23.7917 43.7835 24.3021 43.7314 24.8438C43.6898 25.3854 43.6533 25.9375 43.6221 26.5C43.5908 27.0521 43.5752 27.5885 43.5752 28.1094C43.5752 28.5677 43.5908 28.9948 43.6221 29.3906C43.6533 29.7865 43.7054 30.1354 43.7783 30.4375C43.8617 30.7396 43.9606 30.9792 44.0752 31.1562C44.2002 31.3229 44.3564 31.4062 44.5439 31.4062C44.7314 31.4062 44.9085 31.2865 45.0752 31.0469C45.2419 30.7969 45.3981 30.4792 45.5439 30.0938C45.6898 29.6979 45.8252 29.2604 45.9502 28.7812C46.0752 28.2917 46.1898 27.8021 46.2939 27.3125C46.3981 26.8125 46.4919 26.3438 46.5752 25.9062C46.6689 25.4583 46.7471 25.0833 46.8096 24.7812C46.8512 24.625 46.9294 24.4844 47.0439 24.3594C47.1689 24.224 47.3148 24.1094 47.4814 24.0156C47.6481 23.9219 47.8252 23.849 48.0127 23.7969C48.2002 23.7448 48.3773 23.7188 48.5439 23.7188C48.6689 23.7188 48.7523 23.7604 48.7939 23.8438C48.8356 23.9167 48.8564 24.0365 48.8564 24.2031C48.8564 25.1406 48.9137 26.0521 49.0283 26.9375C49.1429 27.8229 49.3044 28.6094 49.5127 29.2969C49.7314 29.9844 49.9867 30.5365 50.2783 30.9531C50.57 31.3594 50.8981 31.5625 51.2627 31.5625C51.5127 31.5625 51.7471 31.4688 51.9658 31.2812C52.1846 31.0833 52.3773 30.8438 52.5439 30.5625C52.721 30.2708 52.8617 29.9635 52.9658 29.6406C53.0804 29.3177 53.1533 29.0312 53.1846 28.7812C52.7679 28.6042 52.3773 28.3229 52.0127 27.9375C51.6481 27.5417 51.3252 27.0833 51.0439 26.5625C50.7731 26.0312 50.5596 25.4583 50.4033 24.8438C50.2471 24.2292 50.1689 23.6094 50.1689 22.9844C50.1689 22.6406 50.2054 22.3021 50.2783 21.9688C50.3512 21.6354 50.4606 21.3385 50.6064 21.0781C50.7627 20.8177 50.9554 20.6094 51.1846 20.4531C51.4137 20.2865 51.6846 20.2031 51.9971 20.2031C52.4137 20.2031 52.7731 20.3333 53.0752 20.5938C53.3877 20.8542 53.6429 21.2083 53.8408 21.6562C54.0492 22.0938 54.2054 22.6042 54.3096 23.1875C54.4137 23.7708 54.4658 24.3854 54.4658 25.0312C54.4658 25.5104 54.4346 26.0417 54.3721 26.625C54.3096 27.2083 54.2314 27.7448 54.1377 28.2344H54.4346C54.9554 28.2344 55.4033 28.0469 55.7783 27.6719C56.1637 27.2969 56.4919 26.8333 56.7627 26.2812L56.9189 25.9531L57.5596 26.4375L57.4033 26.7656C57.07 27.4219 56.6377 27.9583 56.1064 28.375C55.5752 28.7917 54.9398 29 54.2002 29H53.9814C53.8252 29.5625 53.6377 30.0885 53.4189 30.5781C53.2002 31.0573 52.945 31.4792 52.6533 31.8438C52.3721 32.1979 52.0596 32.4792 51.7158 32.6875C51.3721 32.8958 51.0075 33 50.6221 33C50.1742 33 49.7783 32.9115 49.4346 32.7344C49.1012 32.5573 48.8096 32.3229 48.5596 32.0312C48.3096 31.7292 48.096 31.3958 47.9189 31.0312C47.7523 30.6562 47.6117 30.276 47.4971 29.8906C47.3929 29.4948 47.3096 29.1146 47.2471 28.75C47.1846 28.375 47.1377 28.0417 47.1064 27.75C47.0231 28.0938 46.9346 28.4635 46.8408 28.8594C46.7471 29.2448 46.6377 29.6354 46.5127 30.0312C46.3877 30.4167 46.2419 30.7917 46.0752 31.1562C45.9085 31.5104 45.7106 31.8229 45.4814 32.0938C45.2627 32.3646 45.0075 32.5833 44.7158 32.75C44.4346 32.9167 44.1117 33 43.7471 33ZM51.0752 23.0156C51.0752 23.4948 51.1273 23.9896 51.2314 24.5C51.3356 25 51.4867 25.474 51.6846 25.9219C51.8825 26.3698 52.1169 26.7708 52.3877 27.125C52.6689 27.4792 52.9762 27.75 53.3096 27.9375C53.32 27.8125 53.3304 27.6667 53.3408 27.5C53.3617 27.3333 53.3721 27.1615 53.3721 26.9844C53.3825 26.7969 53.3877 26.6198 53.3877 26.4531C53.3981 26.276 53.4033 26.1198 53.4033 25.9844C53.4033 25.401 53.3669 24.8385 53.2939 24.2969C53.221 23.7448 53.1169 23.2552 52.9814 22.8281C52.846 22.401 52.6846 22.0625 52.4971 21.8125C52.3096 21.5521 52.1012 21.4219 51.8721 21.4219C51.7158 21.4219 51.5856 21.474 51.4814 21.5781C51.3773 21.6719 51.2939 21.7969 51.2314 21.9531C51.1689 22.1094 51.1273 22.2812 51.1064 22.4688C51.0856 22.6562 51.0752 22.8385 51.0752 23.0156ZM66.4033 29.125C66.4033 29.7188 66.4554 30.2188 66.5596 30.625C66.6637 31.0312 66.846 31.2344 67.1064 31.2344C67.2627 31.2344 67.4294 31.1615 67.6064 31.0156C67.7939 30.8594 68.0075 30.6094 68.2471 30.2656C68.4867 29.9219 68.7575 29.4792 69.0596 28.9375C69.3721 28.3854 69.7262 27.7135 70.1221 26.9219L70.5908 25.9531L71.2314 26.4375L70.7627 27.4062C70.3252 28.2812 69.9137 29.0677 69.5283 29.7656C69.1533 30.4531 68.7939 31.0365 68.4502 31.5156C68.1064 31.9948 67.7679 32.3646 67.4346 32.625C67.1117 32.875 66.7887 33 66.4658 33C66.1221 33 65.8304 32.9062 65.5908 32.7188C65.3617 32.5312 65.1689 32.276 65.0127 31.9531C64.8564 31.6198 64.7367 31.2396 64.6533 30.8125C64.57 30.375 64.5127 29.9115 64.4814 29.4219C64.2314 29.9219 63.9554 30.3906 63.6533 30.8281C63.3512 31.2552 63.0335 31.6302 62.7002 31.9531C62.3773 32.276 62.0387 32.5312 61.6846 32.7188C61.3304 32.9062 60.9762 33 60.6221 33C60.1012 33 59.596 32.8906 59.1064 32.6719C58.6169 32.4531 58.1794 32.1198 57.7939 31.6719C57.4189 31.224 57.1169 30.6615 56.8877 29.9844C56.6585 29.2969 56.5439 28.4896 56.5439 27.5625C56.5439 26.4792 56.6846 25.4896 56.9658 24.5938C57.2471 23.6875 57.6273 22.9115 58.1064 22.2656C58.5856 21.6094 59.1377 21.1042 59.7627 20.75C60.3877 20.3854 61.0439 20.2031 61.7314 20.2031C62.1481 20.2031 62.5335 20.2969 62.8877 20.4844C63.2419 20.6719 63.5492 20.901 63.8096 21.1719C64.0804 21.4323 64.3044 21.7135 64.4814 22.0156C64.6585 22.3073 64.7783 22.5573 64.8408 22.7656L65.0283 21.25C65.0492 21.0521 65.1429 20.8854 65.3096 20.75C65.4867 20.6146 65.6794 20.5104 65.8877 20.4375C66.096 20.3542 66.2992 20.2969 66.4971 20.2656C66.695 20.224 66.8356 20.2031 66.9189 20.2031C67.0439 20.2031 67.1273 20.224 67.1689 20.2656C67.2106 20.3073 67.2314 20.3906 67.2314 20.5156C67.2314 20.6719 67.1846 20.9896 67.0908 21.4688C67.0075 21.9375 66.9137 22.5417 66.8096 23.2812C66.7158 24.0104 66.6221 24.8698 66.5283 25.8594C66.445 26.849 66.4033 27.9375 66.4033 29.125ZM64.6846 25C64.6846 24.5208 64.6117 24.0521 64.4658 23.5938C64.32 23.125 64.1221 22.7135 63.8721 22.3594C63.6221 21.9948 63.3304 21.7031 62.9971 21.4844C62.6742 21.2656 62.3304 21.1562 61.9658 21.1562C61.5179 21.1562 61.096 21.2865 60.7002 21.5469C60.3148 21.7969 59.9762 22.1562 59.6846 22.625C59.4033 23.0833 59.1794 23.6406 59.0127 24.2969C58.846 24.9427 58.7627 25.6562 58.7627 26.4375C58.7627 28 59.0075 29.1927 59.4971 30.0156C59.9867 30.8281 60.6377 31.2344 61.4502 31.2344C61.8044 31.2344 62.1689 31.0938 62.5439 30.8125C62.9294 30.5208 63.2783 30.1094 63.5908 29.5781C63.9137 29.0365 64.1742 28.3802 64.3721 27.6094C64.5804 26.8385 64.6846 25.9688 64.6846 25ZM79.5439 23.375C79.5439 23.9375 79.4033 24.5052 79.1221 25.0781C78.8512 25.651 78.4971 26.2031 78.0596 26.7344C77.6221 27.2656 77.1325 27.7604 76.5908 28.2188C76.0596 28.6771 75.5335 29.0677 75.0127 29.3906C75.4606 29.6615 75.8981 30.0052 76.3252 30.4219C76.7523 30.8385 77.1325 31.3333 77.4658 31.9062C77.7679 31.5833 78.1012 31.224 78.4658 30.8281C78.8304 30.4219 79.195 29.9792 79.5596 29.5C79.9346 29.0208 80.2992 28.5156 80.6533 27.9844C81.0075 27.4427 81.3356 26.875 81.6377 26.2812L81.7939 25.9531L82.4346 26.4375L82.2783 26.7656C81.9762 27.3698 81.6377 27.9479 81.2627 28.5C80.8981 29.0417 80.5179 29.5573 80.1221 30.0469C79.7367 30.5365 79.346 31 78.9502 31.4375C78.5648 31.875 78.2002 32.2917 77.8564 32.6875C78.0335 33.125 78.1742 33.5885 78.2783 34.0781C78.3825 34.5781 78.4346 35.125 78.4346 35.7188C78.4346 36.6771 78.346 37.4896 78.1689 38.1562C78.0023 38.8333 77.7679 39.3802 77.4658 39.7969C77.1742 40.224 76.82 40.5312 76.4033 40.7188C75.9971 40.9062 75.5544 41 75.0752 41C74.4814 41 73.9867 40.8125 73.5908 40.4375C73.195 40.0729 72.9971 39.5677 72.9971 38.9219C72.9971 38.5156 73.07 38.0938 73.2158 37.6562C73.3721 37.2292 73.5804 36.7812 73.8408 36.3125C74.1117 35.8542 74.4242 35.3802 74.7783 34.8906C75.1325 34.401 75.5179 33.8906 75.9346 33.3594C75.7992 32.849 75.6377 32.401 75.4502 32.0156C75.2627 31.6198 75.0648 31.2865 74.8564 31.0156C74.6585 30.7448 74.4606 30.5312 74.2627 30.375C74.0752 30.2083 73.9085 30.0938 73.7627 30.0312C73.3148 30.1979 72.971 30.2812 72.7314 30.2812C72.3773 30.2812 72.1117 30.2031 71.9346 30.0469C71.7679 29.8802 71.6846 29.7031 71.6846 29.5156C71.6846 29.3073 71.7783 29.1198 71.9658 28.9531C72.1533 28.776 72.4294 28.6875 72.7939 28.6875C72.9606 28.6875 73.1377 28.7083 73.3252 28.75C73.5127 28.7917 73.7106 28.8438 73.9189 28.9062C74.4189 28.6458 74.8825 28.3177 75.3096 27.9219C75.7367 27.5156 76.1117 27.0781 76.4346 26.6094C76.7575 26.1302 77.0075 25.6302 77.1846 25.1094C77.3721 24.5781 77.4658 24.0625 77.4658 23.5625C77.4658 23.2396 77.4242 22.9427 77.3408 22.6719C77.2679 22.401 77.1481 22.1667 76.9814 21.9688C76.8252 21.7604 76.6273 21.599 76.3877 21.4844C76.1481 21.3698 75.8669 21.3125 75.5439 21.3125C75.1064 21.3125 74.7002 21.4531 74.3252 21.7344C73.9502 22.0052 73.596 22.3594 73.2627 22.7969C72.9398 23.2344 72.6377 23.7188 72.3564 24.25C72.0752 24.7812 71.8044 25.2969 71.5439 25.7969L71.0752 26.7656L70.4346 26.2812L70.9033 25.3125C71.1637 24.7812 71.4554 24.2188 71.7783 23.625C72.1117 23.0312 72.4867 22.4792 72.9033 21.9688C73.3304 21.4583 73.8096 21.0365 74.3408 20.7031C74.8825 20.3698 75.4971 20.2031 76.1846 20.2031C76.7054 20.2031 77.1742 20.2865 77.5908 20.4531C78.0075 20.6094 78.3564 20.8281 78.6377 21.1094C78.9294 21.3906 79.1533 21.724 79.3096 22.1094C79.4658 22.4948 79.5439 22.9167 79.5439 23.375ZM76.3252 36.5156C76.3252 36.1198 76.3096 35.7448 76.2783 35.3906C76.2471 35.0365 76.2054 34.7083 76.1533 34.4062C75.4971 35.25 74.9554 36.0417 74.5283 36.7812C74.1012 37.5312 73.8877 38.2135 73.8877 38.8281C73.8877 39.151 73.9762 39.4323 74.1533 39.6719C74.3408 39.9219 74.5908 40.0469 74.9033 40.0469C75.07 40.0469 75.2367 40.0104 75.4033 39.9375C75.5804 39.875 75.7367 39.724 75.8721 39.4844C76.0075 39.2448 76.1169 38.8906 76.2002 38.4219C76.2835 37.9531 76.3252 37.3177 76.3252 36.5156ZM91.2783 29.125C91.2783 29.7188 91.3304 30.2188 91.4346 30.625C91.5387 31.0312 91.721 31.2344 91.9814 31.2344C92.1377 31.2344 92.3044 31.1615 92.4814 31.0156C92.6689 30.8594 92.8825 30.6094 93.1221 30.2656C93.3617 29.9219 93.6325 29.4792 93.9346 28.9375C94.2471 28.3854 94.6012 27.7135 94.9971 26.9219L95.4658 25.9531L96.1064 26.4375L95.6377 27.4062C95.2002 28.2812 94.7887 29.0677 94.4033 29.7656C94.0283 30.4531 93.6689 31.0365 93.3252 31.5156C92.9814 31.9948 92.6429 32.3646 92.3096 32.625C91.9867 32.875 91.6637 33 91.3408 33C90.9971 33 90.7054 32.9062 90.4658 32.7188C90.2367 32.5312 90.0439 32.276 89.8877 31.9531C89.7314 31.6198 89.6117 31.2396 89.5283 30.8125C89.445 30.375 89.3877 29.9115 89.3564 29.4219C89.1064 29.9219 88.8304 30.3906 88.5283 30.8281C88.2262 31.2552 87.9085 31.6302 87.5752 31.9531C87.2523 32.276 86.9137 32.5312 86.5596 32.7188C86.2054 32.9062 85.8512 33 85.4971 33C84.9762 33 84.471 32.8906 83.9814 32.6719C83.4919 32.4531 83.0544 32.1198 82.6689 31.6719C82.2939 31.224 81.9919 30.6615 81.7627 29.9844C81.5335 29.2969 81.4189 28.4896 81.4189 27.5625C81.4189 26.4792 81.5596 25.4896 81.8408 24.5938C82.1221 23.6875 82.5023 22.9115 82.9814 22.2656C83.4606 21.6094 84.0127 21.1042 84.6377 20.75C85.2627 20.3854 85.9189 20.2031 86.6064 20.2031C87.0231 20.2031 87.4085 20.2969 87.7627 20.4844C88.1169 20.6719 88.4242 20.901 88.6846 21.1719C88.9554 21.4323 89.1794 21.7135 89.3564 22.0156C89.5335 22.3073 89.6533 22.5573 89.7158 22.7656L89.9033 21.25C89.9242 21.0521 90.0179 20.8854 90.1846 20.75C90.3617 20.6146 90.5544 20.5104 90.7627 20.4375C90.971 20.3542 91.1742 20.2969 91.3721 20.2656C91.57 20.224 91.7106 20.2031 91.7939 20.2031C91.9189 20.2031 92.0023 20.224 92.0439 20.2656C92.0856 20.3073 92.1064 20.3906 92.1064 20.5156C92.1064 20.6719 92.0596 20.9896 91.9658 21.4688C91.8825 21.9375 91.7887 22.5417 91.6846 23.2812C91.5908 24.0104 91.4971 24.8698 91.4033 25.8594C91.32 26.849 91.2783 27.9375 91.2783 29.125ZM89.5596 25C89.5596 24.5208 89.4867 24.0521 89.3408 23.5938C89.195 23.125 88.9971 22.7135 88.7471 22.3594C88.4971 21.9948 88.2054 21.7031 87.8721 21.4844C87.5492 21.2656 87.2054 21.1562 86.8408 21.1562C86.3929 21.1562 85.971 21.2865 85.5752 21.5469C85.1898 21.7969 84.8512 22.1562 84.5596 22.625C84.2783 23.0833 84.0544 23.6406 83.8877 24.2969C83.721 24.9427 83.6377 25.6562 83.6377 26.4375C83.6377 28 83.8825 29.1927 84.3721 30.0156C84.8617 30.8281 85.5127 31.2344 86.3252 31.2344C86.6794 31.2344 87.0439 31.0938 87.4189 30.8125C87.8044 30.5208 88.1533 30.1094 88.4658 29.5781C88.7887 29.0365 89.0492 28.3802 89.2471 27.6094C89.4554 26.8385 89.5596 25.9688 89.5596 25Z" fill="#060470"/>
<g clip-path="url(#clip0_1_71)">
<path d="M83.2876 49.7898C72.2181 52.8816 59.9755 44.8009 51.7782 43.302C35.5899 39.6889 28.5088 48.5081 20.1622 52.563C14.5599 54.9452 6.51907 54.8366 0.170273 50.2532C3.49042 54.6483 11.7517 58.1166 20.5604 55.843C28.779 53.6201 35.5259 43.6786 52.2901 47.4148C61.2268 49.4784 74.2301 55.1262 83.2876 49.7898Z" fill="#060470"/>
<path d="M102.59 45.1992C93.2764 50.7818 82.9747 55.5173 72.1327 54.7932C64.4331 54.2067 51.0814 50.8108 44.0074 48.0304C49.3467 52.7368 61.767 58.1457 72.9289 59.0001C84.88 58.9784 95.0751 53.9533 102.59 45.1992Z" fill="#060470"/>
<path d="M58.5962 43.9972C51.9701 39.7541 44.6544 34.9607 32.2981 39.0735C21.3352 42.9183 15.8965 45.6843 10.3439 43.7727C1.79828 40.8185 4.62787 32.9261 9.87469 33.1216C12.7967 33.2012 15.1997 36.1265 12.7256 39.8555C18.3848 34.8449 10.1804 27.6983 4.39326 32.6944C0.525684 36.0179 0.717636 42.6721 6.45501 46.155C20.3186 54.4601 32.227 37.6109 48.9201 40.9923C52.6313 41.7236 56.179 43.2804 58.5962 43.9972Z" fill="#060470"/>
</g>
<defs>
<clipPath id="clip0_1_71">
<rect width="102.427" height="28" fill="white" transform="matrix(-1 0 0 1 102.59 31)"/>
</clipPath>
</defs>
</svg>
